# xmcd CD database file
#
# Track frame offsets:
#	150
#	18471
#	33541
#	47825
#	61393
#	75605
#	88807
#	102656
#	116508
#	128909
#	146492
#	165741
#	184801
#	196487
#	211091
#	225512
#	235727
#	247124
#	257475
#	268358
#	280331
#	290888
#	299957
#	312939
#	319299
#
# Disc length: 4308 seconds
#
# Revision: 0
# Processed by: cddbd v1.5.2PL0 Copyright (c) Steve Scherf et al.
# Submitted via: CDex 1.51
#
DISCID=8d10d219
DTITLE=Leadbelly - New Orleans
DYEAR=2005
DGENRE=Blues
TTITLE0=Noted Rider/ Big Fat Women/ Borrow Love And Go
TTITLE1=Meeting At The Building/ Talking Preaching/ We Shall Walk Through The Valley
TTITLE2=Fiddler's Dream/ Yellow Gal/ Green Corn
TTITLE3=Where Did You Sleep Last Night
TTITLE4=Cow Cow Yicky Yea/ Out On The Western Plains
TTITLE5=When The Boys Were Out On The Western
TTITLE6=Bill Brady
TTITLE7=Yellow Gal
TTITLE8=Pretty Flowers In Your Backyard
TTITLE9=Bring Me Lil Water Silvy/ Julia Ann Johnson/ Line 'em/ Whoa Back Buck
TTITLE10=John Hardy
TTITLE11=Red River/ Black Girl (In The Pines)/ Don't Miss Your Water Blues
TTITLE12=Little Sally Walker/ Ha Ha Thisaway/ Red Bird
TTITLE13=In New Orleans
TTITLE14=John Hardy
TTITLE15=How Do You Know/ Don't Mind The Weather
TTITLE16=Mother's Blues (Little Children Blues)
TTITLE17=(What Are) Little Boys (Made Of)/ Let Me Hold Your Hand (All For You)
TTITLE18=I've A Pretty Flower
TTITLE19=Outskirts Of Town
TTITLE20=Don't Lie Buddy
TTITLE21=Skip To My Lou/ Christmas Day (It's Almost Day)
TTITLE22=Mo' Yet/ (Little Boy) How Old Are You/ Then There's A Limb On The Tree
TTITLE23=Blind Lemon (Memorial Record)
TTITLE24=Leadbelly's Dance
EXTD=YEAR: 2005
EXTT0=
EXTT1=
EXTT2=
EXTT3=
EXTT4=
EXTT5=
EXTT6=
EXTT7=
EXTT8=
EXTT9=
EXTT10=
EXTT11=
EXTT12=
EXTT13=
EXTT14=
EXTT15=
EXTT16=
EXTT17=
EXTT18=
EXTT19=
EXTT20=
EXTT21=
EXTT22=
EXTT23=
EXTT24=
PLAYORDER=
